<?xml version="1.0" encoding="UTF-8"?>
<svg width="1024" height="1024" viewBox="0 0 1024 1024" xmlns="http://www.w3.org/2000/svg">
  <path id="17" d="M 409.291,831.977 C 400.277,831.068 396.024,825.848 397.959,818.064 C 398.446,816.104 400.118,811.125 401.673,807 C 404.426,799.697 404.499,799 404.432,780.500 C 404.376,764.888 403.971,759.675 402.166,751.266 C 398.027,731.988 393.614,721.976 381.998,705.500 C 372.748,692.380 368.955,685.083 365.261,673.297 C 365.261,673.297 362.504,664.500 362.504,664.500 C 362.504,664.500 362.748,635 362.748,635 C 362.979,607.101 362.854,604.744 360.441,591.559 C 356.826,571.808 355.869,558.918 357.075,546.193 C 358.877,527.173 363.690,509.575 372.075,491.338 C 374.269,486.567 375.712,482.357 375.282,481.982 C 374.852,481.607 372.475,480.518 370,479.560 C 363.981,477.231 353.426,470.099 348.524,465.049 C 344.985,461.403 344.687,460.729 345.818,458.919 C 346.937,457.127 346.726,456.546 344.044,454.041 C 342.370,452.477 341,450.448 341,449.532 C 341,448.616 339.928,446.434 338.618,444.683 C 334.593,439.304 333.250,435.816 331.466,426.108 C 328.630,410.674 331.127,386 335.526,386 C 336.323,386 338.515,389.058 340.397,392.796 C 348.355,408.599 363.668,422.935 379.447,429.354 C 385.010,431.617 386.093,432.908 383.698,434.419 C 381.597,435.744 368.104,429.101 359.440,422.477 C 351.849,416.673 346.575,410.892 340.500,401.715 C 338.110,398.105 336.316,396.284 335.730,396.870 C 333.923,398.677 333.654,414.325 335.295,422.108 C 336.152,426.174 337.122,431.134 337.450,433.132 C 337.778,435.130 339.339,438.548 340.918,440.728 C 342.497,442.908 344.467,445.999 345.294,447.596 C 346.121,449.193 348.225,451.991 349.969,453.814 C 352.510,456.469 352.905,457.410 351.958,458.551 C 351.308,459.334 351.032,460.642 351.345,461.458 C 352.643,464.840 373.472,477.996 377.534,477.999 C 378.103,477.999 379.410,476.538 380.438,474.750 C 381.466,472.962 384.781,467.675 387.804,463 C 392.091,456.370 393.672,452.796 394.988,446.755 C 395.916,442.495 396.449,438.783 395.320,434.808 C 397.169,434.543 398.709,430.989 406.288,409.500 C 420.543,369.081 421.650,364.224 418.395,356.372 C 417.512,354.242 416.650,352.350 416.480,352.168 C 416.310,351.986 414.292,353.660 411.995,355.889 C 404.142,363.510 393.107,367.143 382.596,365.567 C 382.596,365.567 378,364.877 378,364.877 C 378,364.877 378,357.544 378,357.544 C 378,344.142 374.214,335.746 359.435,316.377 C 342.679,294.417 340.835,277.165 353.851,264.149 C 355.923,262.077 361.935,257.180 367.209,253.267 C 377.533,245.609 387.095,236.540 399.217,222.911 C 405.096,216.302 408.429,213.504 413.678,210.771 C 424.471,205.151 435.039,203.729 448.538,206.080 C 454.473,207.114 454.993,207.032 460.620,204.195 C 463.854,202.564 470.550,199.878 475.500,198.226 C 505.408,188.244 538.400,190.325 567.387,204.020 C 573.891,207.093 574.444,207.186 579.764,206.118 C 591.824,203.696 603.606,205.178 613.495,210.359 C 619.883,213.706 623.188,216.749 637.648,232.601 C 642.750,238.194 651.375,246.096 657.148,250.467 C 669.110,259.523 677.532,267.319 679.603,271.251 C 681.983,275.769 683,283.355 682.027,289.333 C 680.615,298.011 677.249,304.517 667.223,317.949 C 662.082,324.837 656.235,333.793 654.229,337.851 C 650.983,344.419 650.537,346.268 650.169,354.686 C 649.778,363.620 649.620,364.194 647.312,365.071 C 645.968,365.582 642.874,366 640.435,366 C 640.435,366 636,366 636,366 C 636,366 636.002,405.750 636.002,405.750 C 636.002,405.750 636.004,445.500 636.004,445.500 C 636.004,445.500 640.536,456.986 640.536,456.986 C 651.197,484.007 662.293,522.920 665.425,544.274 C 668.949,568.303 668.387,591.429 663.438,625.872 C 658.167,662.560 651.276,689.009 636.180,730.500 C 633.979,736.550 631.242,743.664 630.099,746.309 C 624.531,759.190 610.780,775.529 598.893,783.387 C 585.377,792.321 569.005,794.603 557.491,789.156 C 546.804,784.100 540.026,773.351 538.009,758.262 C 537.403,753.731 536.199,748.331 535.332,746.262 C 531.067,736.083 533.337,715.685 540.954,695.747 C 543.107,690.111 545.402,683.475 546.054,681 C 547.374,675.987 547.650,663.233 546.547,658.212 C 546.547,658.212 545.830,654.950 545.830,654.950 C 545.830,654.950 531.954,662.130 531.954,662.130 C 521.856,667.355 517.727,669.031 516.789,668.285 C 513.224,665.452 482.861,649.967 481.961,650.524 C 480.728,651.286 480.921,651.982 486.602,667.288 C 489.008,673.772 492.806,685.472 495.042,693.288 C 497.278,701.104 499.321,708.232 499.582,709.127 C 499.843,710.022 502.370,713.397 505.197,716.627 C 511.074,723.341 515.497,732.077 516.980,739.895 C 518.959,750.331 515.013,756.919 503.524,762.359 C 496.346,765.757 480.028,770.332 469.133,772 C 469.133,772 460.767,773.281 460.767,773.281 C 460.767,773.281 461.358,777.592 461.358,777.592 C 462.216,783.853 465.337,792.141 469.320,798.737 C 476.372,810.415 478.118,819.151 474.701,825.659 C 471.831,831.126 467.867,831.863 439.500,832.203 C 425.750,832.368 412.156,832.266 409.291,831.977M 468.679,825.399 C 471.020,823.656 471.551,822.440 471.798,818.265 C 472.057,813.890 471.483,812.075 467.397,804.367 C 459.350,789.186 458.725,787.680 457.648,780.883 C 457.648,780.883 456.599,774.266 456.599,774.266 C 456.599,774.266 448.615,773.650 448.615,773.650 C 438.362,772.859 432.352,770.019 429.255,764.500 C 425.823,758.384 425.060,754.815 423.486,737.500 C 421.256,712.978 419.008,706.532 405.025,684.571 C 393.995,667.249 388.255,653.111 385.362,636.140 C 383.091,622.818 383.945,598.762 387.459,577.057 C 390.204,560.101 391.030,542.547 390,523.018 C 389.561,514.692 389.705,513.495 391.180,513.208 C 393.657,512.725 394.397,519.216 394.409,541.500 C 394.417,557.892 393.961,563.588 391.088,583 C 388.120,603.055 387.814,607.076 388.280,620 C 389.140,643.870 395.307,661.961 410.477,685.114 C 423.235,704.586 425.994,713.168 427.954,739.500 C 428.858,751.644 430.167,758.275 432.078,760.392 C 432.533,760.896 434.976,759.944 437.692,758.206 C 440.337,756.514 444.587,754.238 447.138,753.148 C 447.138,753.148 451.776,751.167 451.776,751.167 C 451.776,751.167 450.404,745.333 450.404,745.333 C 449.649,742.125 449.025,736.205 449.016,732.177 C 449.002,725.738 449.211,724.894 450.750,725.186 C 452.095,725.441 452.559,726.673 452.754,730.509 C 453.024,735.811 454.847,747.943 455.544,749.070 C 455.773,749.440 460.021,748.688 464.985,747.399 C 469.949,746.110 476.929,744.755 480.495,744.390 C 480.495,744.390 486.980,743.726 486.980,743.726 C 486.980,743.726 486.375,739.613 486.375,739.613 C 486.042,737.351 484.650,732.180 483.281,728.123 C 481.247,722.096 481.040,720.593 482.146,719.909 C 482.954,719.409 483.956,719.562 484.631,720.286 C 486.071,721.830 489.742,733.187 490.600,738.750 C 490.600,738.750 491.256,743 491.256,743 C 491.256,743 499.003,743 499.003,743 C 503.264,743 508.226,743.295 512.702,740.554 C 512.366,738.487 510.760,733.948 509.132,730.468 C 501.842,714.890 487.143,705.816 469,705.695 C 458.146,705.622 451.116,708.214 443.649,715.038 C 439.076,719.217 438.045,719.753 436.604,718.700 C 435.069,717.578 435.212,717.162 438.177,714.130 C 442.663,709.542 448.560,705.666 454.500,703.404 C 462.249,700.452 477.318,700.875 486.463,704.299 C 490.293,705.733 493.609,706.724 493.833,706.500 C 494.621,705.712 487.130,681.336 481.849,667.500 C 481.849,667.500 476.505,653.500 476.505,653.500 C 476.505,653.500 476.523,636 476.523,636 C 476.539,620.106 476.787,617.612 479.228,608.818 C 482.414,597.341 484.530,592 485.890,592 C 488.036,592 488.056,594.321 485.963,600.610 C 482.033,612.421 480.949,618.321 480.383,631 C 480.383,631 479.824,643.500 479.824,643.500 C 479.824,643.500 499.162,653.782 499.162,653.782 C 499.162,653.782 518.500,664.065 518.500,664.065 C 518.500,664.065 535.500,655.389 535.500,655.389 C 557.856,643.980 567.061,638.509 573.133,633.019 C 573.133,633.019 578.131,628.500 578.131,628.500 C 578.131,628.500 576.587,621.936 576.587,621.936 C 575.738,618.326 574.358,613.432 573.521,611.060 C 571.606,605.632 571.588,603 573.465,603 C 575.488,603 576.346,604.981 579.313,616.500 C 587.664,648.919 584.941,677.518 571.269,700.964 C 569.196,704.519 563,712.078 557.500,717.763 C 552,723.448 546.755,729.546 545.846,731.315 C 541.600,739.572 540.951,757.099 544.500,767.635 C 546.972,774.972 552.569,781.905 558.473,784.942 C 565.447,788.529 577.942,788.579 586,785.052 C 602.437,777.858 618.211,762.077 625.549,745.485 C 629.475,736.607 640.579,705.403 644.937,691 C 649.497,675.932 654.888,651.902 657.951,633 C 664.757,590.996 664.759,559.911 657.954,528.516 C 653.789,509.301 642.032,470.768 638.116,463.500 C 638.116,463.500 636.500,460.500 636.500,460.500 C 636.500,460.500 636,467.500 636,467.500 C 636,467.500 635.500,474.500 635.500,474.500 C 635.500,474.500 608.736,474.766 608.736,474.766 C 608.736,474.766 581.972,475.033 581.972,475.033 C 581.972,475.033 575.497,479.466 575.497,479.466 C 555.337,493.268 528.560,499.909 504.055,497.184 C 485.661,495.139 466.114,488.157 452.150,478.645 C 446.802,475.002 446.794,475 435.900,475 C 435.900,475 425,475 425,475 C 425,475 425,465.944 425,465.944 C 425,465.944 425,456.888 425,456.888 C 425,456.888 420.057,450.779 420.057,450.779 C 417.339,447.419 413.010,440.919 410.437,436.335 C 407.864,431.751 405.412,428 404.989,428 C 403.139,428 398.633,448.475 396.189,467.987 C 394.781,479.231 394.209,481.529 392.750,481.810 C 391.240,482.100 391,481.321 391,476.132 C 391,472.824 390.576,469.856 390.058,469.536 C 388.904,468.823 382.191,480.159 376.287,492.793 C 368.177,510.147 362.652,529.751 361.370,545.719 C 361.007,550.240 360.325,553.701 359.855,553.410 C 359.385,553.119 359,554.709 359,556.941 C 359,559.173 359.385,561 359.856,561 C 360.327,561 361.012,564.592 361.378,568.983 C 361.744,573.374 363.226,582.936 364.671,590.233 C 366.974,601.863 367.256,605.413 366.952,619 C 366.188,653.178 366.481,660.969 368.869,669.946 C 371.721,680.670 376.400,689.995 384.950,702 C 388.671,707.225 393.092,713.975 394.774,717 C 404.745,734.933 411.365,769.893 409.015,792.206 C 407.961,802.210 407.395,804.577 404.063,812.915 C 402.853,815.943 402.031,819.900 402.199,821.892 C 402.704,827.874 403.737,828.050 436.679,827.758 C 464.551,827.511 465.984,827.406 468.679,825.399M 474.374,766.535 C 494.548,762.435 507.742,757.095 511.367,751.562 C 512.980,749.101 512.954,749.024 510.259,748.271 C 508.742,747.847 502.100,747.558 495.500,747.629 C 482.567,747.768 469.321,750.079 456,754.522 C 447.744,757.276 436.849,762.953 436.224,764.827 C 436.005,765.485 437.328,766.675 439.163,767.472 C 444.570,769.820 460.266,769.402 474.374,766.535M 543.749,725.953 C 544.938,724.054 548.875,719.868 552.498,716.650 C 560.734,709.335 566.039,702.204 571.063,691.694 C 577.592,678.035 579.287,669.932 579.401,651.833 C 579.455,643.216 579.216,635.882 578.868,635.534 C 578.520,635.186 575.323,637.106 571.764,639.800 C 568.205,642.494 561.852,646.598 557.646,648.920 C 557.646,648.920 549.999,653.141 549.999,653.141 C 549.999,653.141 550.749,657.320 550.749,657.320 C 551.162,659.619 551.462,665.550 551.416,670.500 C 551.343,678.244 550.807,680.965 547.576,690 C 539.435,712.766 535.723,729.955 537.491,736.691 C 538.203,739.404 538.286,739.326 539.907,734.453 C 540.830,731.677 542.560,727.852 543.749,725.953M 534.399,491.489 C 548.421,488.593 571.970,479.042 571.991,476.242 C 571.998,475.243 560.323,475.037 515.250,475.242 C 480.029,475.402 458.500,475.862 458.500,476.455 C 458.500,479.278 483.621,489.453 496.500,491.847 C 504.697,493.370 526.277,493.167 534.399,491.489M 631.250,428.750 C 631.507,385.317 631.353,371.019 630.619,370.285 C 630.387,370.053 626.891,372.228 622.849,375.118 C 603.036,389.283 531.450,439.274 530.405,439.675 C 529.374,440.071 492.480,414.731 445.500,381.362 C 437.800,375.893 430.938,371.072 430.250,370.650 C 429.256,370.039 429,380.251 429,420.441 C 429,420.441 429,471 429,471 C 429,471 530,471 530,471 C 530,471 631,471 631,471 C 631,471 631.250,428.750 631.250,428.750M 425,434.912 C 425,434.912 425,421.825 425,421.825 C 425,421.825 421.331,415.265 421.331,415.265 C 419.313,411.657 417.105,407.084 416.424,405.103 C 414.997,400.951 412.646,400.339 412.186,404 C 412.013,405.375 411.001,408.880 409.936,411.788 C 407.364,418.815 407.471,420.378 411.043,427.929 C 414.610,435.469 422.748,448 424.077,448 C 424.594,448 425,442.245 425,434.912M 568.310,408.324 C 606.957,381.328 623.721,369.460 625.450,367.872 C 625.993,367.374 614.610,367 598.899,367 C 598.899,367 571.399,367 571.399,367 C 571.399,367 569.303,371.250 569.303,371.250 C 566.329,377.280 560.603,383.561 555.166,386.757 C 551.067,389.167 549.467,389.500 542,389.500 C 532.150,389.500 526.310,387.646 519.299,382.295 C 514.218,378.417 514.066,378.436 506.500,383.949 C 490.336,395.727 467.817,389.744 458.697,371.250 C 458.697,371.250 456.601,367 456.601,367 C 456.601,367 445.801,367 445.801,367 C 439.861,367 435,367.383 435,367.852 C 435,368.321 443.663,374.839 454.250,382.337 C 508.072,420.452 528.574,434.809 529.310,434.900 C 529.756,434.955 547.306,422.996 568.310,408.324M 424.985,390.417 C 424.993,381.021 424.683,373.017 424.296,372.630 C 423.585,371.919 417.150,390.796 416.840,394.500 C 416.748,395.600 418.116,399.644 419.881,403.487 C 422.339,408.839 423.309,410.126 424.029,408.987 C 424.546,408.169 424.977,399.813 424.985,390.417M 499.113,383.233 C 501.526,382.143 505.413,379.841 507.750,378.119 C 507.750,378.119 512,374.987 512,374.987 C 512,374.987 512,367.728 512,367.728 C 512,367.728 512,360.469 512,360.469 C 512,360.469 507.250,358.779 507.250,358.779 C 504.638,357.849 500.644,355.721 498.376,354.050 C 490.306,348.106 483.734,335.183 485.401,328.539 C 487.136,321.625 496.157,317.168 510.216,316.278 C 524.422,315.379 536.173,318.602 541.004,324.722 C 547.459,332.899 536.497,351.910 521.503,358.541 C 521.503,358.541 516,360.975 516,360.975 C 516,360.975 516,367.437 516,367.437 C 516,373.413 516.240,374.123 519.190,376.880 C 520.945,378.520 524.882,381.121 527.940,382.660 C 532.532,384.971 534.805,385.461 541,385.479 C 547.403,385.497 549.184,385.098 553.176,382.751 C 561.456,377.884 567.477,368.372 570.941,354.689 C 572.420,348.847 573.159,347.440 574.881,347.180 C 577.424,346.797 577.492,347.693 575.500,355.339 C 574.675,358.506 574,361.301 574,361.549 C 574,361.797 580.671,362 588.824,362 C 588.824,362 603.648,362 603.648,362 C 603.648,362 605.969,354.598 605.969,354.598 C 605.969,354.598 608.291,347.195 608.291,347.195 C 608.291,347.195 605.694,340.708 605.694,340.708 C 601.845,331.093 600.653,322.479 601.396,309.630 C 603.236,277.787 603.253,275.537 601.697,269.474 C 599.079,259.270 596.176,252.626 590.740,244.395 C 585.936,237.122 585.634,236.330 587.106,234.875 C 588.576,233.422 589.060,233.805 592.835,239.394 C 601.053,251.564 606.312,265.241 607.532,277.624 C 607.971,282.081 607.607,289.456 606.501,298.507 C 603.299,324.719 607.363,341.734 619.470,352.799 C 625.699,358.492 631.879,361 639.678,361 C 639.678,361 645,361 645,361 C 645,361 645,356.710 645,356.710 C 645,345.300 650.481,332.850 662.588,316.759 C 673.612,302.108 677.121,295.049 677.750,286.256 C 678.581,274.636 675.710,270.376 658.077,257.055 C 645.243,247.360 639.856,242.330 626.202,227.297 C 618.908,219.266 615.610,216.442 610.714,214.031 C 600.720,209.111 587.558,207.972 576.694,211.088 C 574.274,211.782 572.396,211.304 566.610,208.522 C 532.204,191.978 494.773,192.164 460.740,209.050 C 460.740,209.050 454.740,212.027 454.740,212.027 C 454.740,212.027 447.412,210.514 447.412,210.514 C 438.217,208.615 433.918,208.610 426.693,210.492 C 414.592,213.644 411.140,216.238 393.648,235.320 C 387.795,241.705 378.662,250.067 371.148,255.921 C 364.191,261.340 357.314,267.062 355.864,268.637 C 352.596,272.186 350,277.221 350,280.009 C 347.616,279.869 348.912,289.181 350.389,290.250 C 351.452,295.904 356.476,305.212 363.241,314.063 C 376.756,331.746 381.262,341.020 382.710,354.136 C 382.710,354.136 383.523,361.500 383.523,361.500 C 383.523,361.500 389.414,361.293 389.414,361.293 C 404.666,360.757 417.422,347.661 421.517,328.335 C 423.336,319.750 423.331,311.384 421.500,298 C 419.644,284.435 419.655,279.609 421.567,270.208 C 423.573,260.345 428.301,249.343 434.513,240.085 C 439.554,232.572 441.399,230.999 443.133,232.733 C 443.797,233.397 442.256,236.607 438.527,242.327 C 427.274,259.590 424.523,268.963 425.410,287 C 427.226,323.917 427.225,324.160 425.212,331.500 C 424.156,335.350 422.459,340.624 421.441,343.220 C 421.441,343.220 419.591,347.940 419.591,347.940 C 419.591,347.940 422.554,355.220 422.554,355.220 C 424.183,359.224 426.075,362.455 426.758,362.400 C 427.441,362.345 434.031,362.233 441.402,362.150 C 441.402,362.150 454.804,362 454.804,362 C 454.804,362 453.402,357.341 453.402,357.341 C 451.441,350.826 451.542,346.764 453.655,347.177 C 454.795,347.400 455.980,349.991 457.463,355.500 C 461.887,371.935 469.352,381.616 480.144,384.913 C 484.895,386.364 493.959,385.562 499.113,383.233M 617.965,357.250 C 615.077,354.638 612.357,352.360 611.921,352.188 C 611.158,351.888 609.018,358.176 609.006,360.750 C 609.002,361.633 611.085,362 616.108,362 C 616.108,362 623.216,362 623.216,362 C 623.216,362 617.965,357.250 617.965,357.250" stroke="#000000" fill="#000000" stroke-width="1" />
  <path id="4" d="M 405,826.735 C 401.610,824.998 401.265,819.915 404.063,812.915 C 407.395,804.577 407.961,802.210 409.015,792.206 C 411.365,769.893 404.745,734.933 394.774,717 C 393.092,713.975 388.671,707.225 384.950,702 C 376.400,689.995 371.721,680.670 368.869,669.946 C 366.481,660.969 366.188,653.178 366.952,619 C 367.260,605.209 366.996,602.012 364.556,590 C 357.786,556.678 360.862,527.873 374.515,496.745 C 379.576,485.205 387.986,470.035 389.500,469.713 C 390.060,469.594 390.631,472.280 390.799,475.814 C 391.051,481.130 391.367,482.076 392.799,481.801 C 394.195,481.533 394.802,479.059 396.189,467.987 C 398.633,448.475 403.139,428 404.989,428 C 405.412,428 407.864,431.751 410.437,436.335 C 413.010,440.919 417.339,447.419 420.057,450.779 C 420.057,450.779 425,456.888 425,456.888 C 425,456.888 425,465.944 425,465.944 C 425,465.944 425,475 425,475 C 425,475 435.900,475 435.900,475 C 446.794,475 446.802,475.002 452.150,478.645 C 459.929,483.944 474.191,490.498 484.305,493.422 C 515.270,502.373 549.744,497.097 575.497,479.466 C 575.497,479.466 581.972,475.033 581.972,475.033 C 581.972,475.033 608.736,474.766 608.736,474.766 C 608.736,474.766 635.500,474.500 635.500,474.500 C 635.500,474.500 636,467.500 636,467.500 C 636,467.500 636.500,460.500 636.500,460.500 C 636.500,460.500 638.116,463.500 638.116,463.500 C 642.032,470.768 653.789,509.301 657.954,528.516 C 664.759,559.911 664.757,590.996 657.951,633 C 654.888,651.902 649.497,675.932 644.937,691 C 640.579,705.403 629.475,736.607 625.549,745.485 C 618.211,762.077 602.437,777.858 586,785.052 C 577.942,788.579 565.447,788.529 558.473,784.942 C 552.569,781.905 546.972,774.972 544.500,767.635 C 540.951,757.099 541.600,739.572 545.846,731.315 C 546.755,729.546 552,723.448 557.500,717.763 C 563,712.078 569.196,704.519 571.269,700.964 C 584.941,677.518 587.664,648.919 579.313,616.500 C 576.346,604.981 575.488,603 573.465,603 C 571.588,603 571.606,605.632 573.521,611.060 C 574.358,613.432 575.738,618.326 576.587,621.936 C 576.587,621.936 578.131,628.500 578.131,628.500 C 578.131,628.500 573.133,633.019 573.133,633.019 C 567.061,638.509 557.856,643.980 535.500,655.389 C 535.500,655.389 518.500,664.065 518.500,664.065 C 518.500,664.065 499.162,653.782 499.162,653.782 C 499.162,653.782 479.824,643.500 479.824,643.500 C 479.824,643.500 480.383,631 480.383,631 C 480.949,618.321 482.033,612.421 485.963,600.610 C 488.056,594.321 488.036,592 485.890,592 C 484.530,592 482.414,597.341 479.228,608.818 C 476.787,617.612 476.539,620.106 476.523,636 C 476.523,636 476.505,653.500 476.505,653.500 C 476.505,653.500 481.849,667.500 481.849,667.500 C 487.130,681.336 494.621,705.712 493.833,706.500 C 493.609,706.724 490.293,705.733 486.463,704.299 C 477.318,700.875 462.249,700.452 454.500,703.404 C 448.560,705.666 442.663,709.542 438.177,714.130 C 435.212,717.162 435.069,717.578 436.604,718.700 C 438.045,719.753 439.076,719.217 443.649,715.038 C 451.116,708.214 458.146,705.622 469,705.695 C 487.143,705.816 501.842,714.890 509.132,730.468 C 510.760,733.948 512.366,738.487 510.031,743.656 C 508.226,743.295 503.264,743 499.003,743 C 499.003,743 491.256,743 491.256,743 C 491.256,743 490.600,738.750 490.600,738.750 C 489.742,733.187 486.071,721.830 484.631,720.286 C 483.956,719.562 482.954,719.409 482.146,719.909 C 481.040,720.593 481.247,722.096 483.281,728.123 C 484.650,732.180 486.042,737.351 486.375,739.613 C 486.375,739.613 486.980,743.726 486.980,743.726 C 486.980,743.726 480.495,744.390 480.495,744.390 C 476.929,744.755 469.949,746.110 464.985,747.399 C 460.021,748.688 455.773,749.440 455.544,749.070 C 454.847,747.943 453.024,735.811 452.754,730.509 C 452.559,726.673 452.095,725.441 450.750,725.186 C 449.211,724.894 449.002,725.738 449.016,732.177 C 449.025,736.205 449.649,742.125 450.404,745.333 C 450.404,745.333 451.776,751.167 451.776,751.167 C 451.776,751.167 447.138,753.148 447.138,753.148 C 444.587,754.238 440.337,756.514 437.692,758.206 C 434.976,759.944 432.533,760.896 432.078,760.392 C 430.167,758.275 428.858,751.644 427.954,739.500 C 425.994,713.168 423.235,704.586 410.477,685.114 C 395.307,661.961 389.140,643.870 388.280,620 C 387.814,607.076 388.120,603.055 391.088,583 C 393.961,563.588 394.417,557.892 394.409,541.500 C 394.397,519.216 393.657,512.725 391.180,513.208 C 389.705,513.495 389.561,514.692 390,523.018 C 391.030,542.547 390.204,560.101 387.459,577.057 C 383.945,598.762 383.091,622.818 385.362,636.140 C 388.255,653.111 393.995,667.249 405.025,684.571 C 419.008,706.532 421.256,712.978 423.486,737.500 C 425.060,754.815 425.823,758.384 429.255,764.500 C 432.352,770.019 438.362,772.859 448.615,773.650 C 448.615,773.650 456.599,774.266 456.599,774.266 C 456.599,774.266 457.648,780.883 457.648,780.883 C 458.725,787.680 459.350,789.186 467.397,804.367 C 471.483,812.075 472.057,813.890 471.798,818.265 C 471.551,822.440 471.020,823.656 468.679,825.399 C 465.984,827.406 464.551,827.511 436.679,827.758 C 414.500,827.954 406.900,827.709 405,826.735" stroke="#FCCA43" fill="#FCCA43" stroke-width="1" />
  <path id="4" d="M 419.881,403.487 C 418.116,399.644 416.748,395.600 416.840,394.500 C 417.150,390.796 423.585,371.919 424.296,372.630 C 425.357,373.691 425.111,407.276 424.029,408.987 C 423.309,410.126 422.339,408.839 419.881,403.487" stroke="#FCCA43" fill="#FCCA43" stroke-width="1" />
  <path id="16" d="M 429,420.441 C 429,380.251 429.256,370.039 430.250,370.650 C 430.938,371.072 437.800,375.893 445.500,381.362 C 492.480,414.731 529.374,440.071 530.405,439.675 C 531.450,439.274 603.036,389.283 622.849,375.118 C 626.891,372.228 630.387,370.053 630.619,370.285 C 631.353,371.019 631.507,385.317 631.250,428.750 C 631.250,428.750 631,471 631,471 C 631,471 530,471 530,471 C 530,471 429,471 429,471 C 429,471 429,420.441 429,420.441M 614.701,460.590 C 614.701,460.590 617.566,461.163 617.566,461.163 C 617.566,461.163 617.502,453.332 617.502,453.332 C 617.467,449.025 617.119,444.988 616.730,444.363 C 618.296,443.492 617.103,436.237 616.935,436.540 C 618.405,435.632 618.276,432.267 618,427.300 C 618,425.789 614.407,425.533 613.513,426.980 C 609.419,426.278 592.294,427.170 588.840,426.668 C 586.260,425.057 584.122,427.237 585.758,434.969 C 586.769,436.601 586.769,437.399 585.758,439.031 C 586.033,443.049 585.631,454.657 586.082,457.318 C 583.261,460.139 585.051,460.712 596.030,460.501 C 602.097,460.384 607.299,460.675 607.591,461.147 C 607.883,461.619 608.957,461.558 609.979,461.011 C 611.001,460.464 613.125,460.275 614.701,460.590" stroke="#FEFEFE" fill="#FEFEFE" stroke-width="1" />
  <path id="3" d="M 537.491,736.691 C 535.723,729.955 539.435,712.766 547.576,690 C 550.807,680.965 551.343,678.244 551.416,670.500 C 551.462,665.550 551.162,659.619 550.749,657.320 C 550.749,657.320 549.999,653.141 549.999,653.141 C 549.999,653.141 557.646,648.920 557.646,648.920 C 561.852,646.598 568.205,642.494 571.764,639.800 C 575.323,637.106 578.520,635.186 578.868,635.534 C 579.216,635.882 579.455,643.216 579.401,651.833 C 579.287,669.932 577.592,678.035 571.063,691.694 C 566.039,702.204 560.734,709.335 552.498,716.650 C 545.100,723.221 542.350,727.108 539.907,734.453 C 538.286,739.326 538.203,739.404 537.491,736.691" stroke="#EFB332" fill="#EFB332" stroke-width="1" />
  <path id="3" d="M 439.163,767.472 C 437.328,766.675 436.005,765.485 436.224,764.827 C 436.849,762.953 447.744,757.276 456,754.522 C 469.321,750.079 482.567,747.768 495.500,747.629 C 502.100,747.558 508.742,747.847 510.259,748.271 C 512.954,749.024 512.980,749.101 511.367,751.562 C 507.742,757.095 494.548,762.435 474.374,766.535 C 460.266,769.402 444.570,769.820 439.163,767.472" stroke="#EFB332" fill="#EFB332" stroke-width="1" />
  <path id="15" d="M 496.500,491.903 C 483.166,489.274 458.500,479.247 458.500,476.455 C 458.500,475.041 567.063,474.656 568.441,476.066 C 570.934,478.617 558.568,484.906 540.897,490.075 C 534.997,491.801 530.262,492.305 517.500,492.564 C 508.700,492.743 499.250,492.445 496.500,491.903" stroke="#225ABC" fill="#225ABC" stroke-width="1" />
  <path id="25" d="M 607.591,461.147 C 607.299,460.675 602.097,460.384 596.030,460.501 C 585.051,460.712 583.261,460.139 586.082,457.318 C 585.414,452.514 586.058,441.437 585.758,439.031 C 586.769,437.399 586.769,436.601 586.028,429.534 C 584.122,427.237 586.260,425.057 588.840,426.668 C 595.216,427.134 610.420,426.520 613.513,426.980 C 614.407,425.533 618,425.789 616.750,431.708 C 618.276,432.267 618.405,435.632 616.935,436.540 C 617.809,437.453 617.450,444.681 616.730,444.363 C 617.119,444.988 617.467,449.025 617.502,453.332 C 617.502,453.332 617.566,461.163 617.566,461.163 C 617.566,461.163 614.701,460.590 614.701,460.590 C 613.125,460.275 611.001,460.464 609.979,461.011 C 608.957,461.558 607.883,461.619 607.591,461.147M 611.792,455.751 C 613.274,453.966 613.582,433.406 612.153,431.684 C 610.940,430.223 593.456,429.921 591.250,431.323 C 590.369,431.883 590,435.503 590,443.591 C 590,457.034 589.356,456.342 602.294,456.791 C 608.356,457.001 610.994,456.713 611.792,455.751" stroke="#0F0F0F" fill="#0F0F0F" stroke-width="1" />
  <path id="4" d="M 480.144,384.913 C 469.352,381.616 461.887,371.935 457.463,355.500 C 455.980,349.991 454.795,347.400 453.655,347.177 C 451.542,346.764 451.441,350.826 453.402,357.341 C 453.402,357.341 454.804,362 454.804,362 C 454.804,362 441.402,362.150 441.402,362.150 C 434.031,362.233 427.441,362.345 426.758,362.400 C 426.075,362.455 424.183,359.224 422.554,355.220 C 422.554,355.220 419.591,347.940 419.591,347.940 C 419.591,347.940 421.441,343.220 421.441,343.220 C 422.459,340.624 424.156,335.350 425.212,331.500 C 427.225,324.160 427.226,323.917 425.410,287 C 424.523,268.963 427.274,259.590 438.527,242.327 C 442.256,236.607 443.797,233.397 443.133,232.733 C 441.399,230.999 439.554,232.572 434.513,240.085 C 428.301,249.343 423.573,260.345 421.567,270.208 C 419.655,279.609 419.644,284.435 421.500,298 C 423.331,311.384 423.336,319.750 421.517,328.335 C 417.422,347.661 404.666,360.757 389.414,361.293 C 389.414,361.293 383.523,361.500 383.523,361.500 C 383.523,361.500 382.710,354.136 382.710,354.136 C 381.261,341.016 376.748,331.728 363.236,314.063 C 354.240,302.301 350.642,294.411 350.169,285.397 C 349.569,273.969 351.546,271.191 371.148,255.921 C 378.662,250.067 387.795,241.705 393.648,235.320 C 411.140,216.238 414.592,213.644 426.693,210.492 C 433.918,208.610 438.217,208.615 447.412,210.514 C 447.412,210.514 454.740,212.027 454.740,212.027 C 454.740,212.027 460.740,209.050 460.740,209.050 C 483.231,197.891 508.603,193.706 531.030,197.456 C 543.028,199.462 556.454,203.638 566.610,208.522 C 572.396,211.304 574.274,211.782 576.694,211.088 C 587.558,207.972 600.720,209.111 610.714,214.031 C 615.610,216.442 618.908,219.266 626.202,227.297 C 639.856,242.330 645.243,247.360 658.077,257.055 C 675.710,270.376 678.581,274.636 677.750,286.256 C 677.121,295.049 673.612,302.108 662.588,316.759 C 650.481,332.850 645,345.300 645,356.710 C 645,356.710 645,361 645,361 C 645,361 639.678,361 639.678,361 C 624.471,361 611.501,348.994 607.148,330.885 C 604.948,321.732 604.767,312.696 606.501,298.507 C 609.011,277.959 607.355,266.785 599.417,250.703 C 595.218,242.197 588.129,232 586.414,232 C 583.437,232 584.216,234.464 589.934,243.143 C 596.126,252.542 599.008,258.994 601.697,269.474 C 603.253,275.537 603.236,277.787 601.396,309.630 C 600.653,322.479 601.845,331.093 605.694,340.708 C 605.694,340.708 608.291,347.195 608.291,347.195 C 608.291,347.195 605.969,354.598 605.969,354.598 C 605.969,354.598 603.648,362 603.648,362 C 603.648,362 588.824,362 588.824,362 C 580.671,362 574,361.797 574,361.549 C 574,361.301 574.675,358.506 575.500,355.339 C 577.492,347.693 577.424,346.797 574.881,347.180 C 573.159,347.440 572.420,348.847 570.941,354.689 C 567.477,368.372 561.456,377.884 553.176,382.751 C 549.184,385.098 547.403,385.497 541,385.479 C 534.805,385.461 532.532,384.971 527.940,382.660 C 524.882,381.121 520.945,378.520 519.190,376.880 C 516.240,374.123 516,373.413 516,367.437 C 516,367.437 516,360.975 516,360.975 C 516,360.975 521.503,358.541 521.503,358.541 C 536.497,351.910 547.459,332.899 541.004,324.722 C 536.173,318.602 524.422,315.379 510.216,316.278 C 496.157,317.168 487.136,321.625 485.401,328.539 C 483.734,335.183 490.306,348.106 498.376,354.050 C 500.644,355.721 504.638,357.849 507.250,358.779 C 507.250,358.779 512,360.469 512,360.469 C 512,360.469 512,367.728 512,367.728 C 512,367.728 512,374.987 512,374.987 C 512,374.987 507.750,378.119 507.750,378.119 C 498.858,384.671 488.055,387.330 480.144,384.913M 477,286.140 C 478.375,285.167 480.312,282.739 481.304,280.744 C 485.794,271.719 476.194,260.801 466.563,263.979 C 461.147,265.766 458,270.185 458,276 C 458,286.333 468.676,292.031 477,286.140M 561.186,287.965 C 566.766,286.415 570,281.960 570,275.823 C 570,271.467 569.559,270.359 566.679,267.479 C 562.458,263.258 557.489,262.200 552.656,264.493 C 542.866,269.139 542.726,282.701 552.424,287.105 C 557.262,289.302 556.605,289.237 561.186,287.965" stroke="#FCCA43" fill="#FCCA43" stroke-width="1" />
  <path id="17" d="M 466.333,287.923 C 458.368,285.567 455.139,274.554 460.533,268.143 C 467.284,260.120 479.298,262.966 482.066,273.244 C 484.457,282.122 475.373,290.597 466.333,287.923" stroke="#000000" fill="#000000" stroke-width="1" />
  <path id="15" d="M 591.951,455.782 C 590.172,455.127 590,454.055 590,443.591 C 590,435.503 590.369,431.883 591.250,431.323 C 593.456,429.921 610.940,430.223 612.153,431.684 C 613.582,433.406 613.274,453.966 611.792,455.751 C 610.614,457.170 595.786,457.193 591.951,455.782" stroke="#225ABC" fill="#225ABC" stroke-width="1" />
  <path id="16" d="M 501,415.384 C 442.688,374.215 435,368.678 435,367.852 C 435,367.383 439.861,367 445.801,367 C 445.801,367 456.601,367 456.601,367 C 456.601,367 458.697,371.250 458.697,371.250 C 467.817,389.744 490.336,395.727 506.500,383.949 C 514.066,378.436 514.218,378.417 519.299,382.295 C 526.310,387.646 532.150,389.500 542,389.500 C 549.467,389.500 551.067,389.167 555.166,386.757 C 560.603,383.561 566.329,377.280 569.303,371.250 C 569.303,371.250 571.399,367 571.399,367 C 571.399,367 598.899,367 598.899,367 C 614.610,367 625.993,367.374 625.450,367.872 C 621.716,371.301 530.316,435.024 529.310,434.900 C 528.864,434.845 516.125,426.062 501,415.384" stroke="#FEFEFE" fill="#FEFEFE" stroke-width="1" />
  <path id="24" d="M 359,556.941 C 359,554.490 359.396,553.127 360,553.500 C 360.550,553.840 361,555.666 361,557.559 C 361,559.452 360.550,561 360,561 C 359.450,561 359,559.173 359,556.941" stroke="#0F0D06" fill="#0F0D06" stroke-width="1" />
  <path id="24" d="M 387.750,436.750 C 383.777,435.745 383.199,434.909 385.281,433.181 C 386.192,432.425 388.141,432.502 392.610,436.350 C 391.767,437.375 390.599,437.471 387.750,436.750" stroke="#0F0D06" fill="#0F0D06" stroke-width="1" />
  <path id="23" d="M 568.429,477 C 568.429,475.747 569.095,475 570.214,475 C 572.423,475 572.577,477.564 570.418,478.393 C 569.548,478.727 568.745,479 568.633,479 C 568.521,479 568.429,478.100 568.429,477" stroke="#0F3474" fill="#0F3474" stroke-width="1" />
  <path id="22" d="M 412.232,403.036 C 412.395,402.191 413.190,401.500 414,401.500 C 414.810,401.500 415.605,402.191 415.768,403.036 C 415.957,404.016 415.318,404.571 414,404.571 C 412.682,404.571 412.043,404.016 412.232,403.036" stroke="#0C0E1D" fill="#0C0E1D" stroke-width="1" />
  <path id="3" d="M 370.500,475.134 C 363.679,471.878 352.198,463.682 351.345,461.458 C 351.032,460.642 351.308,459.334 351.958,458.551 C 352.905,457.410 352.510,456.469 349.969,453.814 C 348.225,451.991 346.121,449.193 345.294,447.596 C 344.467,445.999 342.497,442.908 340.918,440.728 C 339.339,438.548 337.778,435.130 337.450,433.132 C 337.122,431.134 336.152,426.174 335.295,422.108 C 333.654,414.325 333.923,398.677 335.730,396.870 C 336.316,396.284 338.110,398.105 340.500,401.715 C 352.284,419.515 368.792,431.670 387.727,436.489 C 391.452,437.437 394.999,438.351 395.608,438.520 C 396.384,438.735 396.204,441.178 395.008,446.664 C 393.670,452.806 392.112,456.338 387.804,463 C 384.781,467.675 381.466,472.962 380.438,474.750 C 379.410,476.538 378.103,477.999 377.534,477.999 C 376.965,477.999 373.800,476.709 370.500,475.134" stroke="#EFB332" fill="#EFB332" stroke-width="1" />
  <path id="24" d="M 584.533,235.053 C 583.654,233.630 584.774,232 586.632,232 C 587.508,232 588.010,232.702 587.823,233.667 C 587.433,235.675 585.437,236.517 584.533,235.053" stroke="#0F0D06" fill="#0F0D06" stroke-width="1" />
  <path id="17" d="M 552.424,287.105 C 542.726,282.701 542.866,269.139 552.656,264.493 C 557.489,262.200 562.458,263.258 566.679,267.479 C 569.559,270.359 570,271.467 570,275.823 C 570,281.960 566.766,286.415 561.186,287.965 C 556.605,289.237 557.262,289.302 552.424,287.105" stroke="#000000" fill="#000000" stroke-width="1" />
  <path id="16" d="M 609.006,360.750 C 609.018,358.176 611.158,351.888 611.921,352.188 C 612.357,352.360 615.077,354.638 617.965,357.250 C 617.965,357.250 623.216,362 623.216,362 C 623.216,362 616.108,362 616.108,362 C 611.085,362 609.002,361.633 609.006,360.750" stroke="#FEFEFE" fill="#FEFEFE" stroke-width="1" />
  <path id="15" d="M 418.619,441.179 C 412.907,432.587 407.986,422.258 408.052,419 C 408.131,415.123 412.537,404.500 414.066,404.500 C 414.818,404.500 417.566,408.325 420.172,413 C 420.172,413 424.912,421.500 424.912,421.500 C 424.912,421.500 424.956,434.750 424.956,434.750 C 424.981,442.214 424.597,448 424.077,448 C 423.569,448 421.113,444.931 418.619,441.179" stroke="#225ABC" fill="#225ABC" stroke-width="1" />
</svg>
